<?xml version="1.0" encoding="UTF-8" standalone="no"?>
<!DOCTYPE svg PUBLIC "-//W3C//DTD SVG 20010904//EN"
              "http://www.w3.org/TR/2001/REC-SVG-20010904/DTD/svg10.dtd">

<svg xmlns="http://www.w3.org/2000/svg"
     width="1.01667in" height="1.01667in"
     viewBox="0 0 305 305">
  <path id="Selection #1"
        fill="none" stroke="black" stroke-width="1"
        d="M 143.00,4.42
           C 153.28,3.17 169.58,4.43 180.00,5.72
             211.26,9.56 243.37,16.67 270.00,34.33
             274.35,37.22 279.06,39.74 283.00,43.18
             296.20,54.75 300.97,66.72 300.86,84.00
             300.86,84.00 300.86,122.00 300.86,122.00
             300.86,122.00 300.86,157.00 300.86,157.00
             300.99,166.29 299.70,176.68 295.37,185.00
             288.68,197.83 270.75,209.95 258.00,216.49
             231.03,230.32 193.27,237.86 163.00,238.00
             163.00,238.00 152.00,238.82 152.00,238.82
             152.00,238.82 141.00,238.00 141.00,238.00
             141.00,238.00 132.00,238.00 132.00,238.00
             124.76,237.91 107.52,234.98 100.00,233.45
             74.23,228.18 42.14,218.63 23.00,199.99
             16.82,193.97 11.70,189.07 8.17,181.00
             5.61,175.14 4.08,165.41 4.00,159.00
             4.00,159.00 4.00,89.00 4.00,89.00
             4.01,80.10 5.21,68.06 9.04,60.00
             14.00,49.56 25.56,40.62 35.00,34.33
             61.60,16.60 88.07,11.27 119.00,6.44
             119.00,6.44 130.00,5.91 130.00,5.91
             130.00,5.91 143.00,4.42 143.00,4.42 Z
           M 148.00,16.28
           C 148.00,16.28 119.00,18.29 119.00,18.29
             93.16,21.51 63.82,28.87 42.00,43.36
             29.63,51.57 14.93,63.40 16.18,80.00
             17.31,94.89 28.28,104.83 40.00,112.65
             56.58,123.70 75.79,129.32 95.00,133.88
             103.67,135.94 122.58,139.90 131.00,140.00
             131.00,140.00 158.00,141.00 158.00,141.00
             158.00,141.00 170.00,139.96 170.00,139.96
             170.00,139.96 180.00,139.96 180.00,139.96
             193.70,138.46 207.70,135.25 221.00,131.73
             234.42,128.18 244.70,125.61 257.00,118.57
             271.64,110.20 290.19,95.98 288.68,77.00
             287.11,57.29 270.45,45.47 254.00,37.70
             254.00,37.70 241.00,31.45 241.00,31.45
             225.98,25.32 195.99,17.19 180.00,17.00
             180.00,17.00 148.00,16.28 148.00,16.28 Z
           M 84.00,49.00
           C 84.00,49.00 117.00,50.00 117.00,50.00
             117.00,50.00 116.00,58.00 116.00,58.00
             111.85,58.00 97.31,56.97 94.74,59.60
             92.74,61.63 92.14,70.95 92.00,74.00
             92.00,74.00 110.00,74.00 110.00,74.00
             110.00,74.00 109.00,82.00 109.00,82.00
             105.64,82.00 94.80,81.39 92.43,83.02
             89.44,85.08 88.75,99.80 88.00,104.00
             88.00,104.00 78.00,104.00 78.00,104.00
             78.00,104.00 84.00,49.00 84.00,49.00 Z
           M 124.00,49.00
           C 124.00,49.00 135.00,50.00 135.00,50.00
             135.00,50.00 132.00,73.00 132.00,73.00
             132.00,73.00 154.00,73.00 154.00,73.00
             154.00,73.00 157.00,49.00 157.00,49.00
             157.00,49.00 167.00,49.00 167.00,49.00
             167.00,49.00 161.00,104.00 161.00,104.00
             161.00,104.00 150.00,104.00 150.00,104.00
             150.00,104.00 153.00,81.00 153.00,81.00
             153.00,81.00 131.00,81.00 131.00,81.00
             131.00,81.00 128.00,104.00 128.00,104.00
             128.00,104.00 118.00,104.00 118.00,104.00
             118.00,104.00 124.00,49.00 124.00,49.00 Z
           M 178.00,49.00
           C 178.00,49.00 187.61,50.17 187.61,50.17
             187.61,50.17 192.69,60.00 192.69,60.00
             192.69,60.00 202.00,85.00 202.00,85.00
             202.00,85.00 216.20,60.00 216.20,60.00
             216.20,60.00 223.33,50.17 223.33,50.17
             223.33,50.17 233.00,49.00 233.00,49.00
             233.00,49.00 227.00,104.00 227.00,104.00
             227.00,104.00 217.00,104.00 217.00,104.00
             218.39,98.30 221.56,73.31 221.00,68.00
             221.00,68.00 207.19,91.98 207.19,91.98
             205.24,94.99 202.26,99.02 198.13,96.93
             195.10,95.40 194.02,90.98 193.00,88.00
             193.00,88.00 185.00,67.00 185.00,67.00
             185.00,67.00 181.00,104.00 181.00,104.00
             181.00,104.00 172.00,104.00 172.00,104.00
             172.00,104.00 178.00,49.00 178.00,49.00 Z
           M 18.00,110.00
           C 14.47,114.80 16.00,130.53 16.00,137.00
             16.00,147.39 15.13,166.80 18.76,176.00
             23.42,187.80 38.13,198.16 49.00,204.14
             56.88,208.47 74.02,214.04 83.00,216.72
             132.26,231.40 180.85,229.83 230.00,215.71
             250.63,209.78 278.36,196.10 286.53,175.00
             288.60,169.67 288.99,164.63 289.00,159.00
             289.02,148.98 289.90,118.80 288.00,111.00
             283.05,112.68 270.81,122.35 265.00,125.94
             255.02,132.10 241.22,137.97 230.00,141.49
             216.44,145.74 190.00,150.83 176.00,151.00
             176.00,151.00 157.00,152.00 157.00,152.00
             104.50,152.08 59.82,143.95 18.00,110.00 Z
           M 132.00,209.00
           C 126.20,213.61 121.66,216.63 114.00,216.96
             87.67,218.11 84.74,184.63 99.46,169.30
             106.12,162.36 116.62,159.30 126.00,161.53
             129.31,162.32 136.58,165.48 134.83,169.96
             131.80,177.69 124.59,168.49 116.00,170.53
             101.54,173.97 95.70,198.11 109.00,206.15
             117.11,211.04 122.94,203.25 126.91,203.90
             129.46,204.31 130.81,207.03 132.00,209.00 Z
           M 154.00,161.53
           C 159.06,160.70 164.41,160.53 168.94,163.36
             171.96,165.25 173.89,168.57 170.57,171.39
             165.80,175.42 159.90,166.22 153.28,172.28
             152.16,173.30 151.11,174.83 151.11,176.41
             151.13,182.00 161.29,183.49 165.95,187.39
             176.38,196.13 168.90,213.49 156.00,216.47
             150.78,217.68 143.58,216.73 139.12,213.78
             135.22,211.27 134.36,206.24 139.12,204.15
             143.41,202.33 146.93,208.58 153.00,207.68
             156.31,207.19 159.53,204.52 159.63,200.99
             159.84,193.31 148.75,192.83 144.22,188.61
             136.67,181.56 139.80,165.95 154.00,161.53 Z
           M 176.00,161.00
           C 179.07,161.00 184.06,160.56 186.44,162.74
             188.72,164.82 189.54,171.86 190.21,175.00
             191.73,182.17 194.14,195.95 197.00,202.00
             198.93,194.87 205.34,182.32 208.69,175.00
             210.25,171.60 212.54,164.98 215.39,162.74
             218.13,160.57 222.66,161.00 226.00,161.00
             224.34,166.83 220.06,174.37 217.25,180.00
             217.25,180.00 204.75,206.00 204.75,206.00
             202.25,211.02 201.34,215.99 194.99,215.96
             193.90,215.96 192.30,215.87 191.30,215.40
             188.15,213.91 186.95,205.30 186.13,202.00
             186.13,202.00 176.00,161.00 176.00,161.00 Z
           M 30.00,246.00
           C 37.81,246.00 52.55,245.03 58.90,249.70
             67.89,256.31 64.74,273.83 52.00,277.00
             52.00,277.00 63.00,301.00 63.00,301.00
             59.68,301.00 54.01,301.57 51.41,299.40
             48.35,296.84 45.57,286.82 42.93,283.15
             38.81,277.42 36.44,282.76 35.85,287.00
             35.85,287.00 35.05,293.00 35.05,293.00
             35.05,293.00 34.00,301.00 34.00,301.00
             34.00,301.00 24.00,301.00 24.00,301.00
             24.00,301.00 30.00,246.00 30.00,246.00 Z
           M 75.00,246.00
           C 75.00,246.00 108.00,247.00 108.00,247.00
             108.00,247.00 107.00,255.00 107.00,255.00
             102.85,255.00 88.31,253.97 85.74,256.60
             83.85,258.53 83.24,267.08 83.00,270.00
             83.00,270.00 100.00,270.00 100.00,270.00
             100.00,270.00 99.00,278.00 99.00,278.00
             99.00,278.00 82.00,278.00 82.00,278.00
             82.00,278.00 80.00,293.00 80.00,293.00
             80.00,293.00 102.00,293.00 102.00,293.00
             102.00,293.00 101.00,301.00 101.00,301.00
             101.00,301.00 69.00,301.00 69.00,301.00
             69.00,301.00 75.00,246.00 75.00,246.00 Z
           M 103.00,301.00
           C 103.00,301.00 123.69,257.00 123.69,257.00
             126.49,250.90 128.15,243.79 136.86,246.31
             140.93,247.49 141.71,255.34 142.63,259.00
             142.63,259.00 152.00,301.00 152.00,301.00
             149.30,301.00 143.84,301.56 141.98,299.40
             139.95,297.03 140.80,291.23 137.57,289.02
             135.57,287.66 130.48,288.00 128.00,288.00
             125.73,288.00 122.34,287.78 120.39,289.02
             117.03,291.17 116.50,296.96 113.59,299.40
             111.07,301.50 106.17,301.00 103.00,301.00 Z
           M 164.00,246.00
           C 173.66,246.00 188.81,244.71 196.96,250.13
             207.59,257.21 208.36,275.54 203.01,286.00
             200.84,290.24 197.00,294.46 193.00,297.03
             183.92,302.89 168.67,301.00 158.00,301.00
             158.00,301.00 164.00,246.00 164.00,246.00 Z
           M 217.00,246.00
           C 217.00,246.00 250.00,247.00 250.00,247.00
             250.00,247.00 249.00,255.00 249.00,255.00
             244.85,255.00 230.31,253.97 227.74,256.60
             225.85,258.53 225.24,267.08 225.00,270.00
             225.00,270.00 242.00,270.00 242.00,270.00
             242.00,270.00 241.00,278.00 241.00,278.00
             241.00,278.00 224.00,278.00 224.00,278.00
             224.00,278.00 222.00,293.00 222.00,293.00
             222.00,293.00 244.00,293.00 244.00,293.00
             244.00,293.00 243.00,301.00 243.00,301.00
             243.00,301.00 211.00,301.00 211.00,301.00
             211.00,301.00 217.00,246.00 217.00,246.00 Z
           M 257.00,246.00
           C 264.81,246.00 279.55,245.03 285.90,249.70
             294.89,256.31 291.74,273.83 279.00,277.00
             279.00,277.00 290.00,301.00 290.00,301.00
             286.68,301.00 281.01,301.57 278.41,299.40
             275.35,296.84 272.57,286.82 269.93,283.15
             265.81,277.42 263.44,282.76 262.85,287.00
             262.85,287.00 262.05,293.00 262.05,293.00
             262.05,293.00 261.00,301.00 261.00,301.00
             261.00,301.00 251.00,301.00 251.00,301.00
             251.00,301.00 257.00,246.00 257.00,246.00 Z
           M 38.21,272.00
           C 40.63,272.00 44.52,272.16 46.96,271.35
             54.35,268.91 54.18,259.54 50.69,256.60
             48.26,254.55 41.25,254.04 39.59,257.31
             39.09,258.30 38.60,262.65 38.21,264.00
             38.21,264.00 38.21,272.00 38.21,272.00 Z
           M 169.00,293.00
           C 173.96,293.00 180.44,293.41 185.00,291.35
             195.68,286.52 200.04,265.50 190.67,257.65
             187.42,254.93 183.04,254.86 179.02,255.02
             177.26,255.08 175.37,255.06 174.17,256.57
             172.87,258.22 171.51,272.00 171.15,275.00
             171.15,275.00 169.00,293.00 169.00,293.00 Z
           M 265.21,272.00
           C 267.63,272.00 271.52,272.16 273.96,271.35
             281.35,268.91 281.18,259.54 277.69,256.60
             275.26,254.55 268.25,254.04 266.59,257.31
             266.09,258.30 265.60,262.65 265.21,264.00
             265.21,264.00 265.21,272.00 265.21,272.00 Z
           M 133.00,258.00
           C 133.00,258.00 123.00,280.00 123.00,280.00
             123.00,280.00 137.00,280.00 137.00,280.00
             137.00,280.00 133.00,258.00 133.00,258.00 Z" />
</svg>
